<svg width="100%" viewBox="0 0 67 100"  xmlns="http://www.w3.org/2000/svg">
    <path d="M33.3333 50C33.3333 45.5797 35.0893 41.3405 38.2149 38.2149C41.3405 35.0893 45.5797 33.3333 50 33.3333C54.4203 33.3333 58.6595 35.0893 61.7851 38.2149C64.9107 41.3405 66.6667 45.5797 66.6667 50C66.6667 54.4203 64.9107 58.6595 61.7851 61.7851C58.6595 64.9107 54.4203 66.6667 50 66.6667C45.5797 66.6667 41.3405 64.9107 38.2149 61.7851C35.0893 58.6595 33.3333 54.4203 33.3333 50ZM0 83.3333C0 78.9131 1.75595 74.6738 4.88155 71.5482C8.00716 68.4226 12.2464 66.6667 16.6667 66.6667H33.3333V83.3333C33.3333 87.7536 31.5774 91.9928 28.4518 95.1184C25.3262 98.244 21.0869 100 16.6667 100C12.2464 100 8.00716 98.244 4.88155 95.1184C1.75595 91.9928 0 87.7536 0 83.3333ZM33.3333 0V33.3333H50C54.4203 33.3333 58.6595 31.5774 61.7851 28.4518C64.9107 25.3262 66.6667 21.0869 66.6667 16.6667C66.6667 12.2464 64.9107 8.00716 61.7851 4.88155C58.6595 1.75595 54.4203 0 50 0L33.3333 0ZM0 16.6667C0 21.0869 1.75595 25.3262 4.88155 28.4518C8.00716 31.5774 12.2464 33.3333 16.6667 33.3333H33.3333V0H16.6667C12.2464 0 8.00716 1.75595 4.88155 4.88155C1.75595 8.00716 0 12.2464 0 16.6667ZM0 50C0 54.4203 1.75595 58.6595 4.88155 61.7851C8.00716 64.9107 12.2464 66.6667 16.6667 66.6667H33.3333V33.3333H16.6667C12.2464 33.3333 8.00716 35.0893 4.88155 38.2149C1.75595 41.3405 0 45.5797 0 50Z" fill="inherit"/>
</svg>
