<svg width="100%" viewBox="0 0 73 100"  xmlns="http://www.w3.org/2000/svg">
    <path d="M2.39591 65.3046L12.2504 1.91942C12.3217 1.44956 12.5394 1.01418 12.8726 0.67526C13.2057 0.336338 13.6373 0.111148 14.1059 0.0317463C14.5744 -0.0476549 15.0561 0.0227799 15.4823 0.233024C15.9085 0.443268 16.2575 0.782605 16.4797 1.20273L27.0758 21.0825L2.39591 65.3046ZM72.3772 80.6843L62.9935 22.3534C62.9246 21.9445 62.7445 21.5625 62.4732 21.249C62.2018 20.9355 61.8495 20.7026 61.4547 20.5757C61.06 20.4489 60.6379 20.4329 60.2347 20.5296C59.8315 20.6264 59.4627 20.832 59.1684 21.1242L0 80.6843L32.7385 99.1348C33.7481 99.702 34.8867 100 36.0448 100C37.2029 100 38.3415 99.702 39.3512 99.1348L72.3772 80.6843ZM45.7722 29.7827L38.1886 15.274C37.9973 14.9091 37.7098 14.6035 37.3573 14.3903C37.0047 14.1772 36.6006 14.0645 36.1886 14.0645C35.7766 14.0645 35.3724 14.1772 35.0199 14.3903C34.6674 14.6035 34.3799 14.9091 34.1885 15.274L0.89586 74.9341L45.7722 29.7827Z" fill="inherit"/>
</svg>
