<svg width="100%" viewBox="0 0 91 100"  xmlns="http://www.w3.org/2000/svg">
    <path d="M88.1729 49.25C88.1678 46.3818 87.2135 43.596 85.4587 41.3272C83.704 39.0584 81.2476 37.4343 78.4729 36.7083L90.9229 0H29.2271L41.7104 36.825C39.0155 37.6105 36.6477 39.2483 34.962 41.4929C33.2764 43.7375 32.3635 46.4679 32.3604 49.275C32.3653 51.3446 32.8643 53.3831 33.8159 55.221C34.7674 57.0589 36.1441 58.643 37.8312 59.8416C36.502 61.7155 34.989 63.4519 33.3146 65.025C30.2345 67.9585 26.6302 70.2864 22.6896 71.8875C19.2146 69.5416 17.7104 65.4041 19.0687 61.6958C22.0248 60.7776 24.5546 58.8316 26.2002 56.2098C27.8459 53.5881 28.4986 50.4639 28.0405 47.4026C27.5823 44.3413 26.0434 41.5451 23.7022 39.5201C21.3611 37.495 18.3724 36.375 15.2771 36.3625C11.8383 36.3669 8.54172 37.7349 6.11017 40.1664C3.67862 42.598 2.31064 45.8946 2.30623 49.3333C2.30623 52.8666 3.75207 56.1083 6.06873 58.425C5.86873 58.8291 5.66457 59.2375 5.4604 59.6708C3.5229 63.6666 1.3229 68.1833 0.481233 73.25C-1.19793 83.3833 1.55207 91.5166 8.1854 96.1208C11.7755 98.6529 16.063 100.008 20.4562 100C28.0687 100 35.7979 96.1791 43.2687 92.4708C48.5979 89.8375 54.0979 87.0875 59.5104 85.7541C61.5104 85.2625 63.5937 84.975 65.7937 84.6541C70.252 84.0166 74.8562 83.3541 78.9937 80.9458C81.3565 79.5918 83.3946 77.7374 84.9652 75.5126C86.5357 73.2878 87.6006 70.7464 88.0854 68.0666C88.8104 63.925 88.0854 59.7583 86.2354 56.1083C87.477 54.1083 88.1729 51.7666 88.1729 49.2458V49.25ZM82.527 49.25C82.527 53.2708 79.2562 56.5416 75.2354 56.5416C73.7212 56.5374 72.2458 56.0627 71.0132 55.1833C69.7807 54.3038 68.8519 53.063 68.3554 51.6325C67.8589 50.2021 67.8193 48.6527 68.2419 47.1987C68.6645 45.7447 69.5286 44.458 70.7145 43.5167L70.7437 43.4875C70.977 43.3125 71.2354 43.1375 71.4937 42.9667C71.4937 42.9667 71.527 42.9667 71.527 42.9375C71.6437 42.8792 71.7562 42.7917 71.8729 42.7292C71.902 42.7292 71.9312 42.7041 71.9604 42.7041C72.077 42.6458 72.2229 42.5875 72.3645 42.5291C72.5104 42.4708 72.6562 42.4167 72.7729 42.3583C72.802 42.3583 72.827 42.3292 72.8562 42.3292C72.9729 42.3 73.0895 42.2416 73.2062 42.2125C73.2354 42.2125 73.2895 42.1833 73.3229 42.1833C73.4645 42.1541 73.5812 42.125 73.727 42.1H73.7562L74.1895 42.0083C74.2187 42.0083 74.2729 42.0083 74.3062 41.9791C74.4229 41.9791 74.5354 41.95 74.652 41.95H74.7979C74.9437 41.95 75.0895 41.9208 75.2604 41.9208H75.6354C75.752 41.9208 75.8437 41.9208 75.9562 41.95H76.0145C76.2437 41.9791 76.477 42.0083 76.7104 42.0667C78.3541 42.4189 79.8277 43.3233 80.886 44.6294C81.9443 45.9356 82.5234 47.5647 82.527 49.2458V49.25ZM37.3062 5.79166H82.8479L72.3937 36.625C71.9604 36.7083 71.527 36.8542 71.0937 37L60.0937 14.5625L49.0604 36.8542C48.627 36.7125 48.1604 36.625 47.6979 36.5375L37.3062 5.7875V5.79166ZM58.0062 46.7291C57.4736 44.0566 56.1049 41.6226 54.0979 39.7792L60.0895 27.6792L66.1395 40.0416C64.3479 41.8333 63.0437 44.125 62.5229 46.7291H58.002H58.0062ZM43.502 42.1541C43.6437 42.125 43.7604 42.0958 43.9062 42.0708H43.9896C44.1104 42.0375 44.2229 42.0375 44.3396 42.0083H44.4562C44.5729 42.0083 44.6604 41.9791 44.7729 41.9791H45.902C46.0187 41.9791 46.1062 42.0083 46.1937 42.0083C46.252 42.0083 46.2771 42.0083 46.3396 42.0375C46.452 42.0667 46.5395 42.0667 46.6562 42.0958C46.6854 42.0958 46.7145 42.0958 46.7729 42.125L47.177 42.2083H47.2062C47.3229 42.2416 47.4395 42.2708 47.552 42.3292C47.5812 42.3292 47.6104 42.3583 47.6687 42.3583C47.7562 42.3875 47.8729 42.4166 47.9604 42.4708C47.9895 42.4708 48.0187 42.5 48.0437 42.5C48.1604 42.5583 48.2771 42.5875 48.3937 42.6458H48.4229C48.5567 42.6963 48.6828 42.765 48.7979 42.85H48.827C48.9437 42.9083 49.0604 42.9916 49.177 43.05C49.2062 43.05 49.2062 43.0791 49.2312 43.0791C49.3479 43.1375 49.4395 43.225 49.552 43.2833L49.5812 43.3125C49.927 43.5708 50.2479 43.8625 50.5645 44.15L50.5937 44.1791C51.884 45.5383 52.6004 47.3426 52.5937 49.2166C52.5298 51.1089 51.7331 52.9024 50.3718 54.2184C49.0106 55.5344 47.1913 56.27 45.2979 56.27C43.4045 56.27 41.5852 55.5344 40.2239 54.2184C38.8627 52.9024 38.066 51.1089 38.0021 49.2166C37.9975 47.5941 38.5368 46.0168 39.5337 44.7366C40.5307 43.4564 41.9278 42.5472 43.502 42.1541ZM15.0104 41.95C19.0354 41.95 22.3062 45.225 22.3062 49.2458C22.3062 53.2666 19.0354 56.5416 15.0146 56.5416C10.9937 56.5416 7.71456 53.2708 7.71456 49.25C7.71456 45.2291 10.9896 41.95 15.0104 41.95ZM82.3562 67.0541C82.0269 68.9065 81.293 70.6633 80.207 72.1995C79.1209 73.7357 77.7093 75.0135 76.0729 75.9416C72.9145 77.7666 69.0354 78.3458 64.952 78.925C62.6561 79.2191 60.3757 79.6238 58.1187 80.1375C52.0979 81.6166 46.3104 84.5125 40.6937 87.2916C33.5104 90.85 26.7354 94.2083 20.4562 94.2083C17.2363 94.2283 14.0934 93.2244 11.4812 91.3416C5.1104 86.9416 5.42706 78.6916 6.18123 74.175C6.87706 69.9458 8.81456 65.9833 10.6687 62.1875C10.7854 61.9583 10.8729 61.7541 10.9896 61.5208C11.6229 61.7541 12.2896 61.9291 12.9854 62.0458C11.8854 68.1833 15.0104 74.5208 21.0937 77.65L22.1937 78.2291L23.3771 77.7958C28.4437 76 33.1354 73.075 37.2771 69.1666C39.5641 67.034 41.5857 64.6334 43.2979 62.0166C43.9646 62.1291 44.6312 62.1583 45.2979 62.1583C48.1641 62.1517 50.9476 61.1971 53.2146 59.4433C55.4816 57.6895 57.1048 55.2351 57.8312 52.4625H62.6937C63.4154 55.2393 65.0384 57.698 67.3083 59.4528C69.5781 61.2076 72.3663 62.1592 75.2354 62.1583C77.6354 62.1583 79.8604 61.4916 81.777 60.3666C82.527 62.5333 82.7604 64.7958 82.3562 67.0541Z" fill="inherit"/>
</svg>
