<svg width="100%" viewBox="0 0 89 100"  xmlns="http://www.w3.org/2000/svg">
<path d="M44.3329 100C42.9954 100 41.6621 99.65 40.4912 98.9708L28.258 91.7334C26.4331 90.7126 27.3247 90.3501 27.9247 90.1376C30.3622 89.2918 30.8538 89.096 33.458 87.621C33.7288 87.4668 34.0871 87.5251 34.3663 87.6918L43.7662 93.2709C43.9407 93.3636 44.1353 93.412 44.3329 93.412C44.5304 93.412 44.725 93.3636 44.8995 93.2709L81.545 72.1211C81.7158 72.0182 81.857 71.8727 81.9548 71.6989C82.0527 71.5251 82.1038 71.3289 82.1033 71.1295V28.8383C82.103 28.6353 82.0503 28.4358 81.9503 28.2592C81.8503 28.0825 81.7063 27.9347 81.5325 27.8299L44.9037 6.69684C44.7311 6.6005 44.5368 6.54993 44.3391 6.54993C44.1415 6.54993 43.9471 6.6005 43.7745 6.69684L7.15409 27.8341C6.97952 27.9377 6.83456 28.0846 6.73313 28.2604C6.6317 28.4363 6.57722 28.6353 6.57493 28.8383V71.1295C6.57574 71.3294 6.62983 71.5256 6.73162 71.6977C6.83342 71.8698 6.97925 72.0116 7.15409 72.1086L17.1915 77.9086C22.6373 80.6335 25.9747 77.4252 25.9747 74.2003V32.4466C25.9747 31.8549 26.4497 31.3924 27.0414 31.3924H31.6872C32.2663 31.3924 32.7496 31.8591 32.7496 32.4466V74.2003C32.7496 81.471 28.7914 85.6377 21.8998 85.6377C19.7831 85.6377 18.1123 85.6377 13.4582 83.3419L3.84162 77.8127C2.67272 77.132 1.7028 76.1566 1.02871 74.9839C0.354605 73.8112 -9.90336e-05 72.4821 2.07407e-08 71.1295V28.8383C2.07407e-08 26.0925 1.47082 23.5258 3.84162 22.1592L40.4871 0.984398C41.6675 0.338522 42.9914 0 44.337 0C45.6826 0 47.0065 0.338522 48.187 0.984398L84.8282 22.1592C87.2032 23.53 88.6782 26.0925 88.6782 28.8383V71.1295C88.6758 72.4826 88.3191 73.8115 87.6437 74.9841C86.9682 76.1566 85.9976 77.1318 84.8282 77.8127L48.187 98.9708C47.0203 99.65 45.6912 100 44.3329 100ZM73.92 58.3046C73.92 50.388 68.5701 48.2797 57.3077 46.7922C45.9287 45.2881 44.7704 44.5089 44.7704 41.8465C44.7704 39.6465 45.7495 36.709 54.1786 36.709C61.7077 36.709 64.4826 38.3298 65.6243 43.4048C65.6763 43.6393 65.8065 43.8491 65.9935 43.9998C66.1806 44.1504 66.4133 44.233 66.6534 44.2339H71.4076C71.5528 44.2325 71.6962 44.2019 71.8293 44.1439C71.9625 44.0859 72.0826 44.0018 72.1825 43.8964C72.2832 43.7871 72.36 43.6581 72.4081 43.5175C72.4561 43.3769 72.4744 43.2278 72.4617 43.0798C71.7242 34.3382 65.916 30.2633 54.1786 30.2633C43.7287 30.2633 37.4954 34.6715 37.4954 42.0673C37.4954 50.088 43.6954 52.3047 53.7244 53.2963C65.7243 54.4713 66.6534 56.2255 66.6534 58.5838C66.6534 62.6796 63.366 64.4254 55.6452 64.4254C45.9495 64.4254 43.8162 61.9921 43.0995 57.1671C43.0597 56.9165 42.9316 56.6885 42.7382 56.5242C42.5449 56.3599 42.2991 56.2702 42.0454 56.2713H37.3079C37.169 56.2702 37.0312 56.2967 36.9026 56.3492C36.774 56.4018 36.657 56.4793 36.5586 56.5773C36.4602 56.6754 36.3822 56.792 36.3291 56.9204C36.2761 57.0489 36.2491 57.1865 36.2496 57.3255C36.2496 63.5004 39.6079 70.8587 55.6452 70.8587C67.2618 70.8628 73.92 66.292 73.92 58.3046Z" fill="inherit"/>
</svg>
