<svg width="100%" viewBox="0 0 113 100"  xmlns="http://www.w3.org/2000/svg">
    <path d="M56.1968 39.9807C54.8813 39.9807 53.5787 40.2398 52.3634 40.7432C51.1481 41.2466 50.0438 41.9844 49.1136 42.9146C48.1835 43.8448 47.4456 44.949 46.9422 46.1644C46.4388 47.3797 46.1797 48.6823 46.1797 49.9977C46.1797 51.3132 46.4388 52.6158 46.9422 53.8311C47.4456 55.0464 48.1835 56.1507 49.1136 57.0809C50.0438 58.0111 51.1481 58.7489 52.3634 59.2523C53.5787 59.7557 54.8813 60.0148 56.1968 60.0148C57.5122 60.0148 58.8148 59.7557 60.0301 59.2523C61.2455 58.7489 62.3498 58.0111 63.2799 57.0809C64.2101 56.1507 64.9479 55.0464 65.4513 53.8311C65.9548 52.6158 66.2139 51.3132 66.2139 49.9977C66.2139 48.6823 65.9548 47.3797 65.4513 46.1644C64.9479 44.949 64.2101 43.8448 63.2799 42.9146C62.3498 41.9844 61.2455 41.2466 60.0301 40.7432C58.8148 40.2398 57.5122 39.9807 56.1968 39.9807ZM28.1359 69.9242L25.9254 69.3622C9.45042 65.199 0 58.1322 0 49.979C0 41.8258 9.45042 34.759 25.9254 30.5958L28.1359 30.0385L28.7587 32.2302C30.4277 37.9796 32.5624 43.5835 35.1417 48.9862L35.6147 49.9837L35.1417 50.9812C32.5581 56.382 30.4232 61.9862 28.7587 67.7372L28.1359 69.9242ZM24.8999 35.7144C12.3773 39.2314 4.69243 44.6122 4.69243 49.979C4.69243 55.3411 12.3773 60.722 24.8999 64.2436C26.4313 59.3729 28.2804 54.6078 30.4352 49.979C28.278 45.3512 26.4288 40.586 24.8999 35.7144ZM84.2577 69.9242L83.6348 67.7278C81.9676 61.9787 79.8312 56.3761 77.2472 50.9765L76.7742 49.979L77.2472 48.9815C79.8302 43.5799 81.9666 37.9758 83.6348 32.2255L84.2577 30.0338L86.4728 30.5911C102.943 34.7544 112.394 41.8211 112.394 49.979C112.394 58.1369 102.943 65.199 86.4728 69.3622L84.2577 69.9242ZM81.9583 49.979C84.2062 54.8447 86.0654 59.6261 87.4937 64.2436C100.021 60.722 107.701 55.3411 107.701 49.979C107.701 44.6122 100.016 39.2361 87.4937 35.7144C85.9643 40.5858 84.1152 45.351 81.9583 49.979ZM24.8671 35.691L24.2442 33.504C19.6127 17.1788 21.0176 5.48052 28.0984 1.39689C35.0434 -2.61181 46.1938 2.12276 57.878 14.1161L59.4702 15.7505L57.878 17.3849C53.7263 21.7008 49.9329 26.3477 46.5356 31.2795L45.9034 32.1834L44.8029 32.277C38.8269 32.7481 32.8989 33.7035 27.0775 35.1337L24.8671 35.691ZM33.7462 4.64225C32.4911 4.64225 31.3812 4.91387 30.4446 5.45242C25.7896 8.13582 24.9654 17.4645 28.1733 30.0526C33.1638 28.9424 38.2213 28.1586 43.3137 27.7063C46.2519 23.5285 49.4621 19.5487 52.9233 15.7926C45.6177 8.67906 38.7008 4.64225 33.7462 4.64225ZM78.6521 99.9988C78.6474 99.9988 78.6474 99.9988 78.6521 99.9988C71.9787 99.9988 63.4087 94.9739 54.5156 85.8419L52.9233 84.2075L54.5156 82.5731C58.6662 78.2558 62.458 73.6073 65.8533 68.6738L66.4855 67.77L67.5813 67.6763C73.5604 67.2078 79.4915 66.254 85.3161 64.8243L87.5265 64.267L88.154 66.4587C92.7762 82.7745 91.376 94.4775 84.2952 98.5564C82.5752 99.5289 80.6277 100.027 78.6521 99.9988ZM59.4702 84.1654C66.7758 91.279 73.6927 95.3158 78.6474 95.3158H78.6521C79.9025 95.3158 81.017 95.0441 81.949 94.5056C86.6039 91.8222 87.4328 82.4888 84.2202 69.9008C79.2285 71.0125 74.1693 71.7963 69.0752 72.247C66.1405 76.4277 62.9318 80.4092 59.4702 84.1654ZM87.5265 35.691L85.3161 35.1337C79.4923 33.6994 73.5609 32.7439 67.5813 32.277L66.4855 32.1834L65.8533 31.2795C62.4598 26.3462 58.6678 21.6991 54.5156 17.3849L52.9233 15.7505L54.5156 14.1161C66.1951 2.12745 77.3408 -2.60713 84.2952 1.39689C91.376 5.48052 92.7809 17.1788 88.154 33.4993L87.5265 35.691ZM69.0752 27.7063C74.4233 28.1934 79.5044 28.9848 84.2202 30.0526C87.4328 17.4645 86.6039 8.13582 81.949 5.45242C77.3221 2.77839 68.6256 6.87608 59.4702 15.7926C62.9298 19.5488 66.1384 23.5287 69.0752 27.7063ZM33.7462 99.9988C31.769 100.028 29.8197 99.5297 28.0984 98.5564C21.0176 94.4775 19.6127 82.7792 24.2442 66.4587L24.8624 64.267L27.0728 64.8243C32.4817 66.1871 38.448 67.1471 44.7982 67.6763L45.8987 67.77L46.5263 68.6738C49.9241 73.6067 53.7174 78.2551 57.8686 82.5731L59.4609 84.2075L57.8686 85.8419C48.9802 94.9739 40.4102 99.9988 33.7462 99.9988ZM28.1733 69.9008C24.9607 82.4888 25.7896 91.8222 30.4446 94.5056C35.0668 97.1422 43.7586 93.0772 52.9233 84.1654C49.4635 80.4065 46.2534 76.4252 43.3137 72.247C38.221 71.7966 33.1634 71.0129 28.1733 69.9008ZM56.1968 72.8417C52.3426 72.8417 48.3807 72.6731 44.4142 72.3453L43.3137 72.2517L42.6815 71.3478C40.4378 68.124 38.3287 64.8087 36.3593 61.4104C34.3958 58.0093 32.5741 54.5284 30.8989 50.9765L30.4306 49.979L30.8989 48.9815C32.5738 45.4295 34.3956 41.9485 36.3593 38.5476C38.2981 35.1946 40.4289 31.8509 42.6815 28.6102L43.3137 27.7063L44.4142 27.6127C52.2567 26.9477 60.1415 26.9477 67.9841 27.6127L69.0799 27.7063L69.7074 28.6102C74.1993 35.0591 78.1422 41.8734 81.4947 48.9815L81.9677 49.979L81.4947 50.9765C78.1502 58.0888 74.2069 64.9038 69.7074 71.3478L69.0799 72.2517L67.9841 72.3453C64.0175 72.6731 60.0509 72.8417 56.1968 72.8417ZM45.9081 67.7653C52.839 68.2851 59.5545 68.2851 66.4902 67.7653C70.3623 62.1046 73.8001 56.1589 76.7742 49.979C73.8054 43.7954 70.3657 37.8491 66.4855 32.1927C59.6362 31.6729 52.7574 31.6729 45.9081 32.1927C42.0262 37.8481 38.5864 43.7945 35.6194 49.979C38.5967 56.1581 42.036 62.1038 45.9081 67.7653Z" fill="inherit"/>
</svg>
