<svg width="100%" viewBox="0 0 112 100"  xmlns="http://www.w3.org/2000/svg">
    <path d="M55.8139 0L87.2093 30.8698V3.48837L55.8139 0ZM55.8139 0L27.6744 32.5581H83.9535L55.8139 0ZM55.8139 0L24.4186 3.48837V30.8698L55.8139 0ZM24.4186 3.48837L0 36.0465L20.5395 32.8837L24.4186 3.48837ZM0 36.0465L55.6233 99.7814L55.6605 99.7163L20.6651 36.0465H0ZM87.2093 3.48837L91.0884 32.8837L111.628 36.0465L87.2093 3.48837ZM111.628 36.0465H90.6698L55.6791 99.7209L55.8139 100L111.628 36.0465ZM55.8139 100L55.6698 99.7349L55.6326 99.7907L55.8139 100ZM25.2837 36.0465L55.6698 99.7023L86.3442 36.0465H25.2837Z" fill="inherit"/>
</svg>
