<svg width="100%" viewBox="0 0 100 100"  xmlns="http://www.w3.org/2000/svg">
<path d="M0 50V100H100V0H0V50ZM80.5875 46.0167C83.1292 46.65 85.0625 47.7792 86.8417 49.6208C87.7625 50.6042 89.1292 52.3958 89.2375 52.8292C89.2708 52.9542 84.9208 55.8708 82.2875 57.5083C82.1917 57.5708 81.8083 57.1583 81.3833 56.525C80.0917 54.65 78.7458 53.8417 76.6833 53.7C73.65 53.4917 71.7 55.0792 71.7167 57.7292C71.689 58.3808 71.8357 59.0281 72.1417 59.6042C72.8083 60.9833 74.05 61.8125 77.9333 63.4917C85.0958 66.575 88.1583 68.6042 90.0625 71.4917C92.1875 74.7125 92.6667 79.8583 91.2208 83.6833C89.6375 87.8417 85.7 90.6667 80.1583 91.6C78.4458 91.9042 74.3833 91.8583 72.5417 91.525C68.525 90.8083 64.7167 88.825 62.3667 86.2208C61.4458 85.2083 59.65 82.5542 59.7625 82.3667C60.0513 82.1459 60.3579 81.9494 60.6792 81.7792C61.1292 81.525 62.8083 80.5542 64.3958 79.6333L67.2708 77.9667L67.875 78.8583C68.7167 80.1417 70.5542 81.9042 71.6667 82.4917C74.8583 84.175 79.2375 83.9375 81.3958 82C81.8299 81.6344 82.1734 81.1733 82.3997 80.6529C82.6259 80.1325 82.7287 79.5668 82.7 79C82.7 77.8417 82.5542 77.3333 81.95 76.4583C81.175 75.35 79.5875 74.4167 75.0792 72.4583C69.9208 70.2375 67.7 68.8583 65.6667 66.6667C64.3976 65.2203 63.4604 63.5137 62.9208 61.6667C62.5417 60.2542 62.4458 56.7125 62.7458 55.2875C63.8083 50.3 67.5708 46.8292 73 45.7958C74.7625 45.4625 78.8583 45.5875 80.5875 46.0167ZM57.1125 50.1917L57.1458 54.2875H44.125V91.2708H34.9167V54.2875H21.9083V50.2708C21.9083 48.0458 21.9542 46.1875 22.0167 46.1458C22.0667 46.0792 29.9875 46.0458 39.5875 46.0625L57.0667 46.1125L57.1125 50.1917Z" fill="inherit"/>
</svg>
