<svg width="100%" viewBox="0 0 91 100"  xmlns="http://www.w3.org/2000/svg">
<path d="M87.7754 77.0731L47.0613 100V82.1471L72.4266 68.2546L87.7707 77.0731H87.7754ZM90.5567 74.5643V26.615L75.6636 35.1703V65.9901L90.5567 74.5595V74.5643ZM2.786 77.0731L43.4907 100V82.1471L18.1301 68.2546L2.786 77.0731ZM0 74.5643V26.615L14.8931 35.1703V65.9901L0 74.5595V74.5643ZM1.74301 23.5142L43.4907 0V17.261L16.7442 31.9098L16.5422 32.0272L1.74301 23.5142ZM88.8184 23.5142L47.0613 0V17.261L73.8078 31.9098L74.0099 32.0272L88.809 23.5142H88.8184ZM43.4907 78.0832L18.4637 64.3834V37.2422L43.486 51.6279V78.0785L43.4907 78.0832ZM47.0613 78.0832L72.0836 64.3834V37.2422L47.0613 51.6279V78.0785V78.0832ZM20.1644 34.0991L45.2854 20.343L70.4064 34.0991L45.2854 48.5459L20.1644 34.0991Z" fill="inherit"/>
</svg>
