<svg width="40" height="40" viewBox="0 0 40 40" fill="inherit" xmlns="http://www.w3.org/2000/svg">
<path d="M31.6667 6.66669H8.33337C7.00729 6.66669 5.73552 7.19347 4.79784 8.13115C3.86016 9.06884 3.33337 10.3406 3.33337 11.6667V28.3334C3.33337 29.6594 3.86016 30.9312 4.79784 31.8689C5.73552 32.8066 7.00729 33.3334 8.33337 33.3334H31.6667C32.9928 33.3334 34.2646 32.8066 35.2022 31.8689C36.1399 30.9312 36.6667 29.6594 36.6667 28.3334V11.6667C36.6667 10.3406 36.1399 9.06884 35.2022 8.13115C34.2646 7.19347 32.9928 6.66669 31.6667 6.66669ZM30.55 10L20 17.9167L9.45004 10H30.55ZM31.6667 30H8.33337C7.89135 30 7.46742 29.8244 7.15486 29.5119C6.8423 29.1993 6.66671 28.7754 6.66671 28.3334V12.0834L19 21.3334C19.2885 21.5497 19.6394 21.6667 20 21.6667C20.3607 21.6667 20.7115 21.5497 21 21.3334L33.3334 12.0834V28.3334C33.3334 28.7754 33.1578 29.1993 32.8452 29.5119C32.5327 29.8244 32.1087 30 31.6667 30Z" fill="inherit"/>
</svg>
