<svg width="40" height="40" viewBox="0 0 40 40" fill="inherit" xmlns="http://www.w3.org/2000/svg">
<path d="M20 1.66666C15.1891 1.61778 10.5556 3.48101 7.11785 6.84687C3.6801 10.2127 1.71939 14.8058 1.66663 19.6167C1.68516 23.4186 2.9082 27.1169 5.16006 30.1802C7.41193 33.2436 10.5767 35.5145 14.2 36.6667C15.1166 36.8333 15.45 36.2833 15.45 35.8C15.45 35.3167 15.45 34.25 15.45 32.75C10.35 33.8333 9.26662 30.35 9.26662 30.35C8.92712 29.2565 8.20535 28.3217 7.23329 27.7167C5.56663 26.6167 7.36663 26.6333 7.36663 26.6333C7.94271 26.7103 8.49388 26.9168 8.97881 27.2372C9.46373 27.5576 9.86982 27.9836 10.1666 28.4833C10.6838 29.3802 11.5325 30.0381 12.53 30.3156C13.5274 30.593 14.5939 30.4677 15.5 29.9667C15.5931 29.054 16.0064 28.2037 16.6666 27.5667C12.6 27.1167 8.33329 25.5833 8.33329 18.7C8.29693 16.9045 8.96036 15.1652 10.1833 13.85C9.62634 12.3084 9.6921 10.6105 10.3666 9.11666C10.3666 9.11666 11.9166 8.63333 15.3666 10.95C18.3698 10.1497 21.5301 10.1497 24.5333 10.95C28.0333 8.63333 29.5333 9.11666 29.5333 9.11666C30.2078 10.6105 30.2736 12.3084 29.7166 13.85C30.968 15.1411 31.6674 16.8687 31.6666 18.6667C31.6666 25.5667 27.3666 27.0833 23.3333 27.5333C23.7749 27.9621 24.1161 28.4834 24.3322 29.0598C24.5483 29.6361 24.6341 30.2532 24.5833 30.8667V35.7833C24.5833 35.7833 24.9166 36.8333 25.8333 36.65C29.4462 35.4907 32.6004 33.2193 34.8453 30.1602C37.0902 27.1012 38.311 23.411 38.3333 19.6167C38.2805 14.8058 36.3198 10.2127 32.8821 6.84687C29.4443 3.48101 24.8109 1.61778 20 1.66666Z" fill="inherit"/>
</svg>
