<svg width="40" height="40" viewBox="0 0 40 40" fill="inherit" xmlns="http://www.w3.org/2000/svg">
<path d="M33.3333 36.6667H30.55C29.6659 36.6667 28.8181 36.3155 28.193 35.6903C27.5679 35.0652 27.2167 34.2174 27.2167 33.3333V24.3833C27.2316 24.0323 27.1255 23.6868 26.9161 23.4047C26.7068 23.1225 26.4069 22.9208 26.0667 22.8333C25.8687 22.8032 25.6666 22.8159 25.474 22.8705C25.2813 22.9251 25.1027 23.0204 24.95 23.15C24.7929 23.2833 24.6667 23.4493 24.5804 23.6365C24.494 23.8236 24.4495 24.0273 24.45 24.2333V33.3333C24.45 34.2174 24.0988 35.0652 23.4737 35.6903C22.8486 36.3155 22.0007 36.6667 21.1167 36.6667H18.3333C17.4493 36.6667 16.6014 36.3155 15.9763 35.6903C15.3512 35.0652 15 34.2174 15 33.3333V24.2333C15 22.8107 15.2802 21.402 15.8246 20.0876C16.3691 18.7732 17.167 17.579 18.173 16.573C19.179 15.567 20.3732 14.7691 21.6876 14.2246C23.002 13.6802 24.4107 13.4 25.8333 13.4C27.256 13.4 28.6647 13.6802 29.9791 14.2246C31.2934 14.7691 32.4877 15.567 33.4937 16.573C34.4996 17.579 35.2976 18.7732 35.842 20.0876C36.3865 21.402 36.6667 22.8107 36.6667 24.2333V33.3333C36.6667 34.2174 36.3155 35.0652 35.6904 35.6903C35.0652 36.3155 34.2174 36.6667 33.3333 36.6667ZM25.8333 19.4833C26.0942 19.4669 26.3558 19.4669 26.6167 19.4833C27.7356 19.6986 28.7431 20.3009 29.4623 21.1847C30.1815 22.0685 30.5666 23.1773 30.55 24.3167V33.3333H33.3333V24.2333C33.3333 22.2442 32.5432 20.3365 31.1366 18.93C29.7301 17.5235 27.8225 16.7333 25.8333 16.7333C23.8442 16.7333 21.9366 17.5235 20.53 18.93C19.1235 20.3365 18.3333 22.2442 18.3333 24.2333V33.3333H21.1167V24.2333C21.1166 22.9793 21.6125 21.7761 22.4961 20.8863C23.3797 19.9965 24.5793 19.4921 25.8333 19.4833Z" fill="inherit"/>
<path d="M10 36.6667H6.66671C5.78265 36.6667 4.93481 36.3155 4.30968 35.6904C3.68456 35.0652 3.33337 34.2174 3.33337 33.3333V16.6667C3.33337 15.7826 3.68456 14.9348 4.30968 14.3097C4.93481 13.6845 5.78265 13.3333 6.66671 13.3333H10C10.8841 13.3333 11.7319 13.6845 12.3571 14.3097C12.9822 14.9348 13.3334 15.7826 13.3334 16.6667V33.3333C13.3334 34.2174 12.9822 35.0652 12.3571 35.6904C11.7319 36.3155 10.8841 36.6667 10 36.6667ZM6.66671 16.6667V33.3333H10V16.6667H6.66671Z" fill="inherit"/>
<path d="M8.33338 11.6667C7.34447 11.6667 6.37777 11.3734 5.55553 10.824C4.73328 10.2746 4.09242 9.49374 3.71398 8.58011C3.33554 7.66648 3.23652 6.66114 3.42945 5.69124C3.62238 4.72133 4.09858 3.83042 4.79784 3.13116C5.49711 2.43189 6.38802 1.95569 7.35792 1.76276C8.32783 1.56984 9.33316 1.66885 10.2468 2.04729C11.1604 2.42573 11.9413 3.06659 12.4907 3.88884C13.0401 4.71108 13.3334 5.67778 13.3334 6.66669C13.3334 7.99277 12.8066 9.26454 11.8689 10.2022C10.9312 11.1399 9.65946 11.6667 8.33338 11.6667ZM8.33338 5.00002C8.00374 5.00002 7.68151 5.09777 7.40743 5.28091C7.13334 5.46404 6.91972 5.72434 6.79358 6.02888C6.66743 6.33343 6.63443 6.66854 6.69873 6.99184C6.76304 7.31514 6.92178 7.61211 7.15487 7.8452C7.38795 8.07829 7.68492 8.23702 8.00823 8.30133C8.33153 8.36564 8.66664 8.33263 8.97118 8.20649C9.27573 8.08034 9.53602 7.86672 9.71916 7.59264C9.90229 7.31856 10 6.99633 10 6.66669C10 6.22466 9.82445 5.80074 9.51189 5.48818C9.19933 5.17562 8.7754 5.00002 8.33338 5.00002Z" fill="inherit"/>
</svg>
